<?xml version="1.0" encoding="UTF-8"?>
<svg id="Layer_1" xmlns="http://www.w3.org/2000/svg" version="1.1" xmlns:xlink="http://www.w3.org/1999/xlink" viewBox="0 0 500 500">
  <!-- Generator: Adobe Illustrator 29.7.1, SVG Export Plug-In . SVG Version: 2.1.1 Build 8)  -->
  <defs>
    <style>
      .st0 {
        fill: url(#radial-gradient);
        opacity: .31;
        stroke: url(#linear-gradient);
        stroke-miterlimit: 10;
        stroke-width: 3px;
      }

      .st1 {
        fill: #fff;
      }

      .st2 {
        filter: url(#drop-shadow-1);
      }
    </style>
    <radialGradient id="radial-gradient" cx="250.05" cy="250.27" fx="250.05" fy="250.27" r="424.02" gradientUnits="userSpaceOnUse">
      <stop offset="0" stop-color="#fff"/>
      <stop offset=".22" stop-color="#fdfdfd"/>
      <stop offset=".3" stop-color="#f6f6f7"/>
      <stop offset=".36" stop-color="#eaebed"/>
      <stop offset=".4" stop-color="#d9dcdf"/>
      <stop offset=".44" stop-color="#c3c7cd"/>
      <stop offset=".47" stop-color="#a8aeb6"/>
      <stop offset=".51" stop-color="#87909b"/>
      <stop offset=".53" stop-color="#626c7c"/>
      <stop offset=".56" stop-color="#394659"/>
      <stop offset=".58" stop-color="#14243b"/>
    </radialGradient>
    <linearGradient id="linear-gradient" x1="13.32" y1="250.27" x2="486.77" y2="250.27" gradientUnits="userSpaceOnUse">
      <stop offset="0" stop-color="#fbc926"/>
      <stop offset=".25" stop-color="#fffbcc"/>
      <stop offset=".3" stop-color="#f8efba"/>
      <stop offset=".41" stop-color="#e7d18d"/>
      <stop offset=".55" stop-color="#cca246"/>
      <stop offset=".6" stop-color="#c3922e"/>
      <stop offset=".87" stop-color="#eed688"/>
      <stop offset="1" stop-color="#fffbcc"/>
    </linearGradient>
    <filter id="drop-shadow-1" x="171.16" y="56.68" width="174.24" height="404.88" filterUnits="userSpaceOnUse">
      <feOffset dx="2" dy="2"/>
      <feGaussianBlur result="blur" stdDeviation="1"/>
      <feFlood flood-color="#231f20" flood-opacity=".4"/>
      <feComposite in2="blur" operator="in"/>
      <feComposite in="SourceGraphic"/>
    </filter>
  </defs>
  <g>
    <circle class="st1" cx="250.05" cy="250.27" r="235.23"/>
    <circle class="st0" cx="250.05" cy="250.27" r="235.23"/>
  </g>
  <g class="st2">
    <g>
      <path d="M206.89,339.8c-3.03-5.15-8.27-10.71-11.25-16.6-14.61-28.86-30.01-71.82-20.32-112.57,9.24-38.88,39.56-69.47,90.12-90.92l6.89-2.92-6.51-3.7c-.59-.34-14.7-8.26-29.16-8.26-11.84,0-25.9,5.22-29.75,28.47-2.15-3.36-4.51-7.77-6.25-12.93-5.32-15.84-2.47-31.19,8.47-45.61,1.09-1.2,15.82-17.05,36.24-17.05,15.35,0,30.32,8.8,44.51,26.17-7.43,8.33,8.87,13.64,38.72,40.93l-5.97,4.52c-1.67-.94-4.12-2.12-7.45-1.78-14.1,1.43-39.77,16.85-59.37,33.13-19.02,15.8-44.09,42.32-55.52,78.97-9.77,31.32-8.66,63.34,6.59,100.17"/>
      <path d="M213.13,456.37c90.78-162.76,69.62-245.85,68.61-247.69l-1.6-2.92-3.07,1.28c-56.08,23.36-61.25,101.92-59.8,143.61-1.9-4.03-3.65-8.03-5.23-11.99-.36-.9-.71-1.81-1.06-2.72-.43-1.13-.86-2.27-1.27-3.41-.2-.55-.39-1.06-.56-1.56-.79-2.23-1.54-4.52-2.24-6.8-.16-.5-.3-.97-.44-1.43-.16-.54-.31-1.06-.47-1.58l-.02-.07c-.18-.63-.37-1.29-.55-1.95l-.09-.34c-.08-.3-.16-.6-.24-.9-.45-1.69-.83-3.19-1.16-4.59-.14-.57-.26-1.1-.38-1.64-1.13-5.03-2.01-10.07-2.6-15.02-.05-.44-.11-.89-.15-1.33-.11-.96-.2-1.92-.29-2.88-.08-.96-.16-1.92-.22-2.88-.08-1.13-.14-2.23-.18-3.28-.02-.42-.03-.81-.05-1.19v-.17c-.03-.5-.04-.99-.04-1.49-.03-1.53-.04-2.92-.02-4.28,0-.39.01-.8.02-1.2.03-1.09.06-2.15.11-3.21v-.14c.03-.38.04-.75.07-1.13.13-2.3.34-4.62.61-6.93.1-.88.21-1.73.32-2.58.88-6.37,2.3-12.72,4.2-18.86.2-.64.4-1.26.61-1.89,0,0,.08-.24.09-.3.19-.57.36-1.08.54-1.59.29-.83.58-1.65.88-2.45.15-.4.29-.76.42-1.12,22.7-62.21,89.92-97.3,90.52-97.58l.2-.1.19-.12c2.5-1.57,4.87-2.86,7.06-3.85l.48-.21c3.59-1.58,7.15-2.09,10-1.79,2.43.26,4.16.96,4.71,1.38l2.24,1.72,10.32-7.73c13.43,19.64,3.73,80.31-2.37,111.48-5.43,27.74-12.64,55.55-23.57,82.52-18.32,45.2-94.55,132.88-94.55,132.88"/>
    </g>
  </g>
</svg>